<svg xmlns="http://www.w3.org/2000/svg" viewBox="0 0 32 32" width="32" height="32">
  <defs>
    <linearGradient id="bookGradient" x1="0%" y1="0%" x2="100%" y2="100%">
      <stop offset="0%" style="stop-color:#3B82F6;stop-opacity:1" />
      <stop offset="100%" style="stop-color:#1D4ED8;stop-opacity:1" />
    </linearGradient>
    <linearGradient id="pageGradient" x1="0%" y1="0%" x2="100%" y2="100%">
      <stop offset="0%" style="stop-color:#FFFFFF;stop-opacity:1" />
      <stop offset="100%" style="stop-color:#F8FAFC;stop-opacity:1" />
    </linearGradient>
  </defs>

  <!-- Fond circulaire avec ombre -->
  <circle cx="16" cy="16" r="16" fill="url(#bookGradient)"/>
  <circle cx="16" cy="16" r="14" fill="none" stroke="#FFFFFF" stroke-width="0.5" opacity="0.3"/>

  <!-- Livre ouvert -->
  <g transform="translate(8, 8)">
    <!-- Page de gauche -->
    <path d="M 0 0 L 0 16 L 8 16 L 8 0 Z" fill="url(#pageGradient)" stroke="#E2E8F0" stroke-width="0.5"/>

    <!-- Page de droite -->
    <path d="M 8 0 L 8 16 L 16 16 L 16 0 Z" fill="url(#pageGradient)" stroke="#E2E8F0" stroke-width="0.5"/>

    <!-- Reliure centrale -->
    <rect x="7.5" y="0" width="1" height="16" fill="#CBD5E1" stroke="#94A3B8" stroke-width="0.3"/>

    <!-- Lignes de texte sur la page de gauche -->
    <rect x="1" y="2" width="6" height="0.8" fill="#E2E8F0" rx="0.4"/>
    <rect x="1" y="3.5" width="5" height="0.8" fill="#E2E8F0" rx="0.4"/>
    <rect x="1" y="5" width="6" height="0.8" fill="#E2E8F0" rx="0.4"/>
    <rect x="1" y="6.5" width="4" height="0.8" fill="#E2E8F0" rx="0.4"/>
    <rect x="1" y="8" width="6" height="0.8" fill="#E2E8F0" rx="0.4"/>
    <rect x="1" y="9.5" width="5" height="0.8" fill="#E2E8F0" rx="0.4"/>
    <rect x="1" y="11" width="6" height="0.8" fill="#E2E8F0" rx="0.4"/>
    <rect x="1" y="12.5" width="4" height="0.8" fill="#E2E8F0" rx="0.4"/>

    <!-- Lignes de texte sur la page de droite -->
    <rect x="9" y="2" width="6" height="0.8" fill="#E2E8F0" rx="0.4"/>
    <rect x="9" y="3.5" width="5" height="0.8" fill="#E2E8F0" rx="0.4"/>
    <rect x="9" y="5" width="6" height="0.8" fill="#E2E8F0" rx="0.4"/>
    <rect x="9" y="6.5" width="4" height="0.8" fill="#E2E8F0" rx="0.4"/>
    <rect x="9" y="8" width="6" height="0.8" fill="#E2E8F0" rx="0.4"/>
    <rect x="9" y="9.5" width="5" height="0.8" fill="#E2E8F0" rx="0.4"/>
    <rect x="9" y="11" width="6" height="0.8" fill="#E2E8F0" rx="0.4"/>
    <rect x="9" y="12.5" width="4" height="0.8" fill="#E2E8F0" rx="0.4"/>

    <!-- Titre du livre (ligne plus épaisse) -->
    <rect x="1" y="14" width="6" height="1.2" fill="#3B82F6" rx="0.6"/>
    <rect x="9" y="14" width="6" height="1.2" fill="#3B82F6" rx="0.6"/>
  </g>

  <!-- Éléments décoratifs subtils -->
  <circle cx="8" cy="8" r="1" fill="#FFFFFF" opacity="0.3"/>
  <circle cx="24" cy="10" r="0.8" fill="#FFFFFF" opacity="0.2"/>
  <circle cx="6" cy="24" r="0.6" fill="#FFFFFF" opacity="0.25"/>
</svg>
